<?xml version="1.0" encoding="UTF-8" standalone="no"?>
<svg
   data-name="Layer 1"
   viewBox="0 0 64.789062 80.917968"
   x="0px"
   y="0px"
   version="1.1"
   id="svg6"
   sodipodi:docname="Adaptability.svg"
   width="64.789062"
   height="80.917969"
   inkscape:version="1.3.2 (091e20e, 2023-11-25, custom)"
   xml:space="preserve"
   xmlns:inkscape="http://www.inkscape.org/namespaces/inkscape"
   xmlns:sodipodi="http://sodipodi.sourceforge.net/DTD/sodipodi-0.dtd"
   xmlns="http://www.w3.org/2000/svg"
   xmlns:svg="http://www.w3.org/2000/svg"
   xmlns:rdf="http://www.w3.org/1999/02/22-rdf-syntax-ns#"
   xmlns:cc="http://creativecommons.org/ns#"
   xmlns:dc="http://purl.org/dc/elements/1.1/"><sodipodi:namedview
     id="namedview6"
     pagecolor="#505050"
     bordercolor="#eeeeee"
     borderopacity="1"
     inkscape:showpageshadow="0"
     inkscape:pageopacity="0"
     inkscape:pagecheckerboard="0"
     inkscape:deskcolor="#505050"
     inkscape:zoom="4"
     inkscape:cx="17.25"
     inkscape:cy="33.125"
     inkscape:window-width="1920"
     inkscape:window-height="1017"
     inkscape:window-x="-8"
     inkscape:window-y="-8"
     inkscape:window-maximized="1"
     inkscape:current-layer="layer1" /><defs
     id="defs1"><inkscape:path-effect
       effect="fillet_chamfer"
       id="path-effect5"
       is_visible="true"
       lpeversion="1"
       nodesatellites_param="F,0,0,1,0,0,0,1 @ F,0,1,1,0,1.8591541,0,1 @ F,0,1,1,0,1.8591541,0,1 @ F,0,1,1,0,1.8591541,0,1"
       radius="0"
       unit="px"
       method="auto"
       mode="F"
       chamfer_steps="1"
       flexible="false"
       use_knot_distance="true"
       apply_no_radius="true"
       apply_with_radius="true"
       only_selected="false"
       hide_knots="false" /><inkscape:path-effect
       effect="fillet_chamfer"
       id="path-effect45"
       is_visible="true"
       lpeversion="1"
       nodesatellites_param="F,0,0,1,0,0,0,1 @ F,0,1,1,0,1.8591541,0,1 @ F,0,1,1,0,1.8591541,0,1 @ F,0,1,1,0,1.8591541,0,1"
       radius="0"
       unit="px"
       method="auto"
       mode="F"
       chamfer_steps="1"
       flexible="false"
       use_knot_distance="true"
       apply_no_radius="true"
       apply_with_radius="true"
       only_selected="false"
       hide_knots="false" /><inkscape:path-effect
       effect="fillet_chamfer"
       id="path-effect1"
       is_visible="true"
       lpeversion="1"
       nodesatellites_param="F,0,0,1,0,0,0,1 @ F,0,0,1,0,0,0,1 @ F,0,0,1,0,0,0,1 @ F,0,0,1,0,0,0,1 @ F,0,0,1,0,0,0,1 @ F,0,0,1,0,0,0,1 @ F,0,0,1,0,0,0,1 @ F,0,0,1,0,0,0,1 @ F,0,0,1,0,0,0,1 @ F,0,0,1,0,0.27303413,0,1 @ F,0,0,1,0,0,0,1 @ F,0,0,1,0,0,0,1 @ F,0,0,1,0,0,0,1"
       radius="0"
       unit="px"
       method="auto"
       mode="F"
       chamfer_steps="1"
       flexible="false"
       use_knot_distance="true"
       apply_no_radius="true"
       apply_with_radius="true"
       only_selected="false"
       hide_knots="false" /><style
       id="style1">.cls-1{fill-rule:evenodd;}</style><style
       id="style1-3">.cls-1{fill-rule:evenodd;}</style><inkscape:path-effect
       effect="fillet_chamfer"
       id="path-effect43"
       is_visible="true"
       lpeversion="1"
       nodesatellites_param="F,0,0,1,0,0,0,1 @ F,0,1,1,0,1.8591541,0,1 @ F,0,1,1,0,1.8591541,0,1 @ F,0,1,1,0,1.8591541,0,1"
       radius="0"
       unit="px"
       method="auto"
       mode="F"
       chamfer_steps="1"
       flexible="false"
       use_knot_distance="true"
       apply_no_radius="true"
       apply_with_radius="true"
       only_selected="false"
       hide_knots="false" /><style
       id="style1-8">.cls-1{fill-rule:evenodd;}</style><style
       id="style1-7">
      .cls-1 {
        fill-rule: evenodd;
      }
    </style></defs><title
     id="title1">a</title><metadata
     id="metadata6"><rdf:RDF><cc:Work
         rdf:about=""><dc:title>a</dc:title></cc:Work></rdf:RDF></metadata><g
     inkscape:groupmode="layer"
     id="layer1"
     inkscape:label="Adaptabillity"
     style="display:inline"
     transform="translate(73.539227,-6.9836201)"><path
       id="rect1"
       style="display:inline;fill:#ffffff;fill-opacity:0.994106;stroke-width:66.3734;stroke-miterlimit:0;stroke-dasharray:165.934"
       d="M -66.933758 12.286354 C -67.655506 12.286354 -68.236493 12.867344 -68.236493 13.589089 L -68.236493 81.384011 C -68.236493 82.105756 -67.655506 82.686745 -66.933758 82.686745 L -15.355633 82.686745 C -14.633888 82.686745 -14.052899 82.105756 -14.052899 81.384011 L -14.052899 13.589089 C -14.052899 12.867344 -14.633888 12.286354 -15.355633 12.286354 L -66.933758 12.286354 z M -56.654461 16.059792 C -55.610342 16.059792 -54.769696 17.064732 -54.769696 18.313698 L -54.769696 58.315651 A 8.4339876 8.4413216 0 0 1 -48.234539 66.536354 A 8.4339876 8.4413216 0 0 1 -54.769696 74.739479 L -54.769696 76.76487 C -54.769696 78.013835 -55.610342 79.020729 -56.654461 79.020729 C -57.698583 79.020729 -58.539227 78.013835 -58.539227 76.76487 L -58.539227 74.745339 A 8.4339876 8.4413216 0 0 1 -65.101727 66.536354 A 8.4339876 8.4413216 0 0 1 -58.539227 58.32737 L -58.539227 18.313698 C -58.539227 17.064732 -57.698583 16.059792 -56.654461 16.059792 z M -40.654461 16.059792 C -39.610342 16.059792 -38.769696 17.064732 -38.769696 18.313698 L -38.769696 21.001198 L -36.088055 25.620339 L -32.660321 31.522683 A 1.2971052 1.2814418 0 0 1 -33.785321 33.442604 L -38.769696 33.442604 L -38.769696 76.76487 C -38.769696 78.013835 -39.610342 79.020729 -40.654461 79.020729 C -41.698583 79.020729 -42.539227 78.013835 -42.539227 76.76487 L -42.539227 33.442604 L -47.482586 33.442604 A 1.2971576 1.2814935 0 0 1 -48.607586 31.522683 L -42.539227 21.071511 L -42.539227 18.313698 C -42.539227 17.064732 -41.698583 16.059792 -40.654461 16.059792 z M -24.654461 16.059792 C -23.610342 16.059792 -22.769696 17.064732 -22.769696 18.313698 L -22.769696 39.553933 L -18.058758 39.553933 C -17.21668 39.553933 -16.539227 40.229056 -16.539227 41.069558 L -16.539227 54.286354 C -16.539227 55.126855 -17.21668 55.803933 -18.058758 55.803933 L -22.769696 55.803933 L -22.769696 76.76487 C -22.769696 78.013835 -23.610342 79.020729 -24.654461 79.020729 C -25.698583 79.020729 -26.539227 78.013835 -26.539227 76.76487 L -26.539227 55.803933 L -31.269696 55.803933 C -32.111774 55.803933 -32.789227 55.126855 -32.789227 54.286354 L -32.789227 41.069558 C -32.789227 40.229056 -32.111774 39.553933 -31.269696 39.553933 L -26.539227 39.553933 L -26.539227 18.313698 C -26.539227 17.064732 -25.698583 16.059792 -24.654461 16.059792 z " /><path
       id="rect2"
       style="display:inline;fill:#ffffff;fill-opacity:1;stroke-width:77.8129;stroke-miterlimit:0;stroke-dasharray:194.533"
       d="m -70.379071,6.9836201 c -1.750589,0 -3.160156,1.407614 -3.160156,3.1582029 v 74.599609 c 0,1.750589 1.409567,3.160156 3.160156,3.160156 h 58.468751 c 1.750589,0 3.1601567,-1.409567 3.1601567,-3.160156 V 10.141823 c 0,-1.7505889 -1.4095677,-3.1582029 -3.1601567,-3.1582029 z m 2.822266,3.1874999 h 52.759766 c 1.618083,0 2.921876,1.301839 2.921876,2.919921 v 68.953125 c 0,1.618083 -1.303793,2.919922 -2.921876,2.919922 h -52.759766 c -1.618083,0 -2.919922,-1.301839 -2.919922,-2.919922 V 13.091041 c 0,-1.618082 1.301839,-2.919921 2.919922,-2.919921 z" /><path
       class="cls-1"
       d="m 47.04986,22.082113 -2.849375,-4.967982 a 1.0663571,1.0663571 0.00100522 0 0 -1.850005,-3.2e-5 l -5.6947,9.928096 a 1.076883,1.076883 59.919172 0 0 0.934123,1.612691 h 11.371215 a 1.0768395,1.0768395 120.07983 0 0 0.934067,-1.612659 z"
       id="path43"
       style="display:inline;fill:#ffffff;fill-opacity:1;fill-rule:evenodd;stroke-width:1.97631"
       inkscape:label="Triangle"
       inkscape:path-effect="#path-effect45"
       inkscape:original-d="M 47.04986,22.082113 43.275511,15.501408 35.730749,28.654886 H 50.820272 Z"
       transform="matrix(0.71127374,0,0,0.7026846,-71.414539,11.163741)" /><path
       id="path5"
       style="display:inline;fill:#ffffff;stroke-width:49.7079;stroke-miterlimit:0;stroke-dasharray:124.27"
       inkscape:label="CircleBtn"
       d="m -51.134592,66.536867 a 5.5335392,5.5383511 0 0 1 -5.533538,5.538351 5.5335392,5.5383511 0 0 1 -5.533538,-5.538351 5.5335392,5.5383511 0 0 1 5.533538,-5.538352 5.5335392,5.5383511 0 0 1 5.533538,5.538352 z" /><path
       id="path7"
       style="display:inline;fill:#ffffff;stroke-width:74.3449;stroke-miterlimit:0;stroke-dasharray:185.863"
       inkscape:label="SquareBtn"
       d="m -28.997769,42.347443 h 8.667085 c 0.552488,0 0.99727,0.443948 0.99727,0.995401 v 8.670824 c 0,0.551453 -0.444782,0.9954 -0.99727,0.9954 h -8.667085 c -0.552488,0 -0.99727,-0.443947 -0.99727,-0.9954 v -8.670824 c 0,-0.551453 0.444782,-0.995401 0.99727,-0.995401 z" /></g></svg>
