<?xml version="1.0" encoding="UTF-8" standalone="no"?>
<svg
   data-name="Layer 1"
   viewBox="0 0 78.31778 90.008545"
   x="0px"
   y="0px"
   version="1.1"
   id="svg6"
   sodipodi:docname="Adaptability.svg"
   width="78.31778"
   height="90.008545"
   inkscape:version="1.3.2 (091e20e, 2023-11-25, custom)"
   xml:space="preserve"
   xmlns:inkscape="http://www.inkscape.org/namespaces/inkscape"
   xmlns:sodipodi="http://sodipodi.sourceforge.net/DTD/sodipodi-0.dtd"
   xmlns="http://www.w3.org/2000/svg"
   xmlns:svg="http://www.w3.org/2000/svg"
   xmlns:rdf="http://www.w3.org/1999/02/22-rdf-syntax-ns#"
   xmlns:cc="http://creativecommons.org/ns#"
   xmlns:dc="http://purl.org/dc/elements/1.1/"><sodipodi:namedview
     id="namedview6"
     pagecolor="#505050"
     bordercolor="#eeeeee"
     borderopacity="1"
     inkscape:showpageshadow="0"
     inkscape:pageopacity="0"
     inkscape:pagecheckerboard="0"
     inkscape:deskcolor="#505050"
     inkscape:zoom="2.8284271"
     inkscape:cx="22.980971"
     inkscape:cy="60.634407"
     inkscape:window-width="1920"
     inkscape:window-height="1017"
     inkscape:window-x="-8"
     inkscape:window-y="-8"
     inkscape:window-maximized="1"
     inkscape:current-layer="layer1" /><defs
     id="defs1"><inkscape:path-effect
       effect="fillet_chamfer"
       id="path-effect45"
       is_visible="true"
       lpeversion="1"
       nodesatellites_param="F,0,0,1,0,0,0,1 @ F,0,1,1,0,1.8591541,0,1 @ F,0,1,1,0,1.8591541,0,1 @ F,0,1,1,0,1.8591541,0,1"
       radius="0"
       unit="px"
       method="auto"
       mode="F"
       chamfer_steps="1"
       flexible="false"
       use_knot_distance="true"
       apply_no_radius="true"
       apply_with_radius="true"
       only_selected="false"
       hide_knots="false" /><inkscape:path-effect
       effect="fillet_chamfer"
       id="path-effect1"
       is_visible="true"
       lpeversion="1"
       nodesatellites_param="F,0,0,1,0,0,0,1 @ F,0,0,1,0,0,0,1 @ F,0,0,1,0,0,0,1 @ F,0,0,1,0,0,0,1 @ F,0,0,1,0,0,0,1 @ F,0,0,1,0,0,0,1 @ F,0,0,1,0,0,0,1 @ F,0,0,1,0,0,0,1 @ F,0,0,1,0,0,0,1 @ F,0,0,1,0,0.27303413,0,1 @ F,0,0,1,0,0,0,1 @ F,0,0,1,0,0,0,1 @ F,0,0,1,0,0,0,1"
       radius="0"
       unit="px"
       method="auto"
       mode="F"
       chamfer_steps="1"
       flexible="false"
       use_knot_distance="true"
       apply_no_radius="true"
       apply_with_radius="true"
       only_selected="false"
       hide_knots="false" /><style
       id="style1">.cls-1{fill-rule:evenodd;}</style><style
       id="style1-3">.cls-1{fill-rule:evenodd;}</style><inkscape:path-effect
       effect="fillet_chamfer"
       id="path-effect43"
       is_visible="true"
       lpeversion="1"
       nodesatellites_param="F,0,0,1,0,0,0,1 @ F,0,1,1,0,1.8591541,0,1 @ F,0,1,1,0,1.8591541,0,1 @ F,0,1,1,0,1.8591541,0,1"
       radius="0"
       unit="px"
       method="auto"
       mode="F"
       chamfer_steps="1"
       flexible="false"
       use_knot_distance="true"
       apply_no_radius="true"
       apply_with_radius="true"
       only_selected="false"
       hide_knots="false" /></defs><title
     id="title1">a</title><metadata
     id="metadata6"><rdf:RDF><cc:Work
         rdf:about=""><dc:title>a</dc:title></cc:Work></rdf:RDF></metadata><g
     inkscape:groupmode="layer"
     id="layer1"
     inkscape:label="Adaptabillity"
     style="display:inline"><path
       id="path1"
       style="display:inline;fill:#ffffff;fill-opacity:1;stroke-width:50;stroke-miterlimit:0;stroke-dasharray:125"
       d="M 43.65625,-0.0546875 C 34.73924,-0.11352592 25.148827,2.9764773 18.421875,8.8300781 12.086224,14.343178 7.5035098,22.839737 6.8515625,31.212891 c -0.1370405,1.760051 1.911186,3.274088 1.6738281,5.023437 -1.9068323,3.126659 -5.7973152,7.980994 -8.2832031,12.296875 -0.0748944,0.130028 -0.0346802,0.307541 0.0898438,0.392578 2.558904,1.747464 4.4575778,1.654609 5.8847656,3.316407 3.5396301,5.589868 -0.2308326,14.944674 1.4863281,19.792968 1.983776,5.601065 13.870399,0.888396 17.974609,5.640625 2.719628,3.149033 1.962891,12.328125 1.962891,12.328125 h 39.458984 c 0,0 -2.296358,-13.340487 -1.705078,-22.013672 C 66.094974,57.715829 78.580818,36.513797 78.410156,30.298828 78.204231,22.799679 75.171654,14.712625 69.753906,9.5234375 63.061813,3.1136646 52.922618,0.00645614 43.65625,-0.0546875 Z m -0.318359,6.1777344 a 24.946243,25 0 0 1 24.947265,25.0000001 24.946243,25 0 0 1 -24.947265,25 24.946243,25 0 0 1 -24.945313,-25 24.946243,25 0 0 1 24.945313,-25.0000001 z"
       inkscape:label="Head" /><path
       id="path6"
       style="fill:#ffffff;fill-opacity:1;stroke-width:67.7782;stroke-miterlimit:0;stroke-dasharray:169.443"
       inkscape:label="Mind"
       d="M 43.392578 8.2070312 A 22.907314 22.911036 0 0 0 20.484375 31.117188 A 22.907314 22.911036 0 0 0 43.392578 54.029297 A 22.907314 22.911036 0 0 0 66.300781 31.117188 A 22.907314 22.911036 0 0 0 43.392578 8.2070312 z M 43.273438 13.783203 C 43.868547 13.783203 44.347656 14.337504 44.347656 15.025391 L 44.347656 17.333984 L 47.0625 22.068359 L 49.90625 27.027344 A 1.0768395 1.0768395 0 0 1 48.972656 28.640625 L 44.347656 28.640625 L 44.347656 47.21875 C 44.347656 47.90663 43.868547 48.460937 43.273438 48.460938 C 42.678321 48.460938 42.199219 47.90663 42.199219 47.21875 L 42.199219 28.640625 L 37.601562 28.640625 A 1.076883 1.076883 0 0 1 36.667969 27.027344 L 42.199219 17.384766 L 42.199219 15.025391 C 42.199219 14.337504 42.678321 13.783203 43.273438 13.783203 z M 54.273438 15.908203 C 54.868546 15.908203 55.347656 16.394468 55.347656 16.998047 L 55.347656 31.882812 L 58.982422 31.882812 C 59.578891 31.882812 60.060547 32.364467 60.060547 32.960938 L 60.060547 42.339844 C 60.060547 42.936313 59.578891 43.416016 58.982422 43.416016 L 55.347656 43.416016 L 55.347656 45.246094 C 55.347656 45.849665 54.868546 46.335937 54.273438 46.335938 C 53.678321 46.335938 53.199219 45.849665 53.199219 45.246094 L 53.199219 43.416016 L 49.613281 43.416016 C 49.016812 43.416016 48.535156 42.936313 48.535156 42.339844 L 48.535156 32.960938 C 48.535156 32.364467 49.016812 31.882813 49.613281 31.882812 L 53.199219 31.882812 L 53.199219 16.998047 C 53.199219 16.394468 53.678321 15.908203 54.273438 15.908203 z M 32.300781 15.910156 C 32.895898 15.910156 33.375 16.394468 33.375 16.998047 L 33.375 30.107422 A 6.5215907 6.5333095 0 0 1 38.820312 36.548828 A 6.5215907 6.5333095 0 0 1 33.375 42.982422 L 33.375 45.246094 C 33.375 45.849664 32.895898 46.335937 32.300781 46.335938 C 31.705674 46.335938 31.226563 45.849664 31.226562 45.246094 L 31.226562 42.984375 A 6.5215907 6.5333095 0 0 1 25.775391 36.548828 A 6.5215907 6.5333095 0 0 1 31.226562 30.113281 L 31.226562 16.998047 C 31.226562 16.394468 31.705674 15.910156 32.300781 15.910156 z " /><path
       id="rect43"
       style="display:inline;fill:#ffffff;stroke-width:50.3968;stroke-miterlimit:0;stroke-dasharray:125.993"
       inkscape:label="SquareBtn"
       d="m 51.371196,34.037994 h 5.869757 c 0.374171,0 0.675399,0.301228 0.675399,0.675399 v 5.883322 c 0,0.374171 -0.301228,0.675399 -0.675399,0.675399 h -5.869757 c -0.374171,0 -0.675399,-0.301228 -0.675399,-0.675399 v -5.883322 c 0,-0.374171 0.301228,-0.675399 0.675399,-0.675399 z" /><path
       id="ellipse13"
       style="display:inline;fill:#ffffff;stroke-width:39.1789;stroke-miterlimit:0;stroke-dasharray:97.9476"
       inkscape:label="CircleBtn"
       d="m 36.651443,36.548622 a 4.3614345,4.3652272 0 0 1 -4.361434,4.365227 4.3614345,4.3652272 0 0 1 -4.361435,-4.365227 4.3614345,4.3652272 0 0 1 4.361435,-4.365227 4.3614345,4.3652272 0 0 1 4.361434,4.365227 z" /><path
       id="rect9"
       style="display:none;fill:#ffffff;stroke-width:53.7561;stroke-miterlimit:0;stroke-dasharray:134.391"
       inkscape:label="Slider"
       d="m 43.27422,13.784 c 0.595117,0 1.074218,0.553787 1.074218,1.241675 v 32.193237 c 0,0.687888 -0.479101,1.241675 -1.074218,1.241675 -0.595118,0 -1.074219,-0.553787 -1.074219,-1.241675 V 15.025675 c 0,-0.687888 0.479101,-1.241675 1.074219,-1.241675 z" /><path
       class="cls-1"
       d="m 47.04986,22.082113 -2.849375,-4.967982 a 1.0663571,1.0663571 0.00100522 0 0 -1.850005,-3.2e-5 l -5.6947,9.928096 a 1.076883,1.076883 59.919172 0 0 0.934123,1.612691 h 11.371215 a 1.0768395,1.0768395 120.07983 0 0 0.934067,-1.612659 z"
       id="path43"
       style="display:inline;fill:#ffffff;fill-opacity:1;fill-rule:evenodd;stroke-width:1.97631"
       inkscape:label="Triangle"
       inkscape:path-effect="#path-effect45"
       inkscape:original-d="M 47.04986,22.082113 43.275511,15.501408 35.730749,28.654886 H 50.820272 Z"
       transform="matrix(0.50966081,0,0,0.50349377,21.240571,12.057162)" /></g></svg>
