<?xml version="1.0" encoding="UTF-8" standalone="no"?>
<svg
   version="1.1"
   viewBox="0 0 15.507371 21.226698"
   x="0px"
   y="0px"
   id="svg2"
   sodipodi:docname="AttentionToDetail.svg"
   width="15.507371"
   height="21.226698"
   inkscape:version="1.3.2 (091e20e, 2023-11-25, custom)"
   xmlns:inkscape="http://www.inkscape.org/namespaces/inkscape"
   xmlns:sodipodi="http://sodipodi.sourceforge.net/DTD/sodipodi-0.dtd"
   xmlns="http://www.w3.org/2000/svg"
   xmlns:svg="http://www.w3.org/2000/svg">
  <defs
     id="defs2">
    <inkscape:path-effect
       effect="fillet_chamfer"
       id="path-effect6"
       is_visible="true"
       lpeversion="1"
       nodesatellites_param="F,0,0,1,0,0,0,1 @ F,0,0,1,0,0,0,1 @ F,0,0,1,0,0,0,1 @ F,0,0,1,0,0,0,1 @ F,0,0,1,0,0,0,1 @ F,0,0,1,0,0,0,1 | F,0,0,1,0,0,0,1 @ F,0,1,1,0,0.24879565,0,1 @ F,0,0,1,0,0,0,1 @ F,0,0,1,0,0.24879565,0,1"
       radius="0"
       unit="px"
       method="auto"
       mode="F"
       chamfer_steps="1"
       flexible="false"
       use_knot_distance="true"
       apply_no_radius="true"
       apply_with_radius="true"
       only_selected="false"
       hide_knots="false" />
    <inkscape:path-effect
       effect="fillet_chamfer"
       id="path-effect5"
       is_visible="true"
       lpeversion="1"
       nodesatellites_param="F,0,0,1,0,0.39467876,0,1 @ F,0,0,1,0,0,0,1 @ F,0,1,1,0,0.39467876,0,1 @ F,0,0,1,0,0,0,1"
       radius="0"
       unit="px"
       method="auto"
       mode="F"
       chamfer_steps="1"
       flexible="false"
       use_knot_distance="true"
       apply_no_radius="true"
       apply_with_radius="true"
       only_selected="false"
       hide_knots="false" />
  </defs>
  <sodipodi:namedview
     id="namedview2"
     pagecolor="#505050"
     bordercolor="#eeeeee"
     borderopacity="1"
     inkscape:showpageshadow="0"
     inkscape:pageopacity="0"
     inkscape:pagecheckerboard="0"
     inkscape:deskcolor="#505050"
     inkscape:zoom="16"
     inkscape:cx="10.5625"
     inkscape:cy="15.34375"
     inkscape:window-width="1920"
     inkscape:window-height="1017"
     inkscape:window-x="-8"
     inkscape:window-y="-8"
     inkscape:window-maximized="1"
     inkscape:current-layer="svg2" />
  <path
     id="rect1"
     style="fill:#ffffff;stroke-width:61.2035;stroke-miterlimit:0;stroke-dasharray:153.009"
     inkscape:label="Mango"
     transform="matrix(0.87309793,0.48754487,-0.50248409,0.86458646,0,0)"
     d="m 10.705882,8.1885071 h 0.682177 c 0.305373,0 0.551214,0.2458416 0.551214,0.5512143 v 8.7564026 c 0,0.305373 -0.245841,0.551214 -0.551214,0.551214 h -0.682177 c -0.305373,0 -0.551214,-0.245841 -0.551214,-0.551214 V 8.7397214 c 0,-0.3053727 0.245841,-0.5512143 0.551214,-0.5512143 z" />
  <path
     id="path2"
     style="fill:#ffffff;fill-opacity:1;stroke-width:57.6638;stroke-miterlimit:0;stroke-dasharray:144.16"
     inkscape:label="Lupa"
     d="M 9.0972146,9.7842913e-8 A 6.4110184,6.4114475 0 0 0 2.6851052,6.4121095 6.4110184,6.4114475 0 0 0 9.0972146,12.824219 6.4110184,6.4114475 0 0 0 15.507371,6.4121095 6.4110184,6.4114475 0 0 0 9.0972146,9.7842913e-8 Z M 9.0933083,1.123047 A 5.2978778,5.2940931 0 0 1 14.392136,6.4160158 5.2978778,5.2940931 0 0 1 9.0933083,11.710938 5.2978778,5.2940931 0 0 1 3.7964333,6.4160158 5.2978778,5.2940931 0 0 1 9.0933083,1.123047 Z" />
  <path
     id="ellipse3"
     style="display:inline;fill:#ffffff;fill-opacity:1;stroke-width:17.485;stroke-miterlimit:0;stroke-dasharray:43.7126"
     inkscape:label="Iris"
     d="M 9.0761719 4.4941406 A 1.9429832 1.9450865 0 0 0 7.1328125 6.4394531 A 1.9429832 1.9450865 0 0 0 9.0761719 8.3847656 A 1.9429832 1.9450865 0 0 0 11.017578 6.4394531 A 1.9429832 1.9450865 0 0 0 9.0761719 4.4941406 z M 9.0761719 5.1640625 A 1.2747912 1.2761712 0 0 1 10.349609 6.4394531 A 1.2747912 1.2761712 0 0 1 9.0761719 7.7148438 A 1.2747912 1.2761712 0 0 1 7.8007812 6.4394531 A 1.2747912 1.2761712 0 0 1 9.0761719 5.1640625 z " />
  <path
     id="path5"
     style="fill:#ffffff;fill-opacity:1;stroke-width:63.4207;stroke-miterlimit:0;stroke-dasharray:158.552"
     inkscape:label="White"
     d="M 9.1733865,3.3906251 C 7.6168129,3.3919406 5.4784692,5.0958136 4.3081521,6.1640626 4.1474088,6.3107869 4.1483829,6.5511194 4.3101052,6.6972658 5.912144,8.1450075 7.5610823,9.4567284 9.1401833,9.4863282 10.817774,9.4552839 12.737663,7.7726987 13.849168,6.7148439 c 0.157599,-0.1499922 0.157608,-0.3963039 0,-0.546875 C 12.224975,4.6162966 10.496878,3.4010427 9.1733865,3.3906251 Z m -0.021484,0.6757813 c 1.0685759,0.00821 2.4675429,0.9765829 3.7768329,2.2056357 0.100119,0.093983 0.09937,0.2479698 -0.0013,0.3414844 C 12.052204,7.4265105 10.520867,8.7274952 9.1245583,8.8144532 7.8970674,8.7098672 6.4976842,7.7436914 5.222876,6.6024627 5.120573,6.5108793 5.1201674,6.3596541 5.2224041,6.2678519 6.1452954,5.4391523 7.8889198,4.0674483 9.1519021,4.0664064 Z"
     inkscape:path-effect="#path-effect6"
     inkscape:original-d="M 9.1733865,3.3906251 C 7.6168129,3.3919406 5.4784692,5.0958136 4.3081521,6.1640626 4.1474088,6.3107869 4.1483829,6.5511194 4.3101052,6.6972658 5.912144,8.1450075 7.5610823,9.4567284 9.1401833,9.4863282 10.817774,9.4552839 12.737663,7.7726987 13.849168,6.7148439 c 0.157599,-0.1499922 0.157608,-0.3963039 0,-0.546875 C 12.224975,4.6162966 10.496878,3.4010427 9.1733865,3.3906251 Z M 9.1519021,4.0664064 C 10.269667,4.0749964 11.748941,5.1341766 13.108933,6.4433595 12.277323,7.2293544 10.623171,8.721124 9.1245583,8.8144532 7.8376367,8.7048035 6.3617751,7.6481142 5.0386209,6.435547 5.8951518,5.640948 7.7992033,4.0675223 9.1519021,4.0664064 Z" />
  <path
     id="rect7"
     style="fill:#f9f9f9;stroke-width:26.3461;stroke-miterlimit:0;stroke-dasharray:65.8652"
     inkscape:label="Mango"
     transform="matrix(0.87309793,0.48754487,-0.50248409,0.86458646,0,0)"
     d="m 10.906551,7.0053139 h 0.293655 c 0.131453,0 0.237279,0.1058267 0.237279,0.2372797 v 3.7693444 c 0,0.131453 -0.105826,0.23728 -0.237279,0.23728 h -0.293655 c -0.131453,0 -0.23728,-0.105827 -0.23728,-0.23728 V 7.2425936 c 0,-0.131453 0.105827,-0.2372797 0.23728,-0.2372797 z" />
</svg>
