<?xml version="1.0" encoding="UTF-8" standalone="no"?>
<svg
   width="2222"
   height="2500"
   viewBox="0 0 256 288"
   preserveAspectRatio="xMinYMin meet"
   version="1.1"
   id="svg6"
   sodipodi:docname="c.svg"
   inkscape:version="1.3.2 (091e20e, 2023-11-25, custom)"
   xmlns:inkscape="http://www.inkscape.org/namespaces/inkscape"
   xmlns:sodipodi="http://sodipodi.sourceforge.net/DTD/sodipodi-0.dtd"
   xmlns="http://www.w3.org/2000/svg"
   xmlns:svg="http://www.w3.org/2000/svg">
  <defs
     id="defs6" />
  <sodipodi:namedview
     id="namedview6"
     pagecolor="#505050"
     bordercolor="#eeeeee"
     borderopacity="1"
     inkscape:showpageshadow="0"
     inkscape:pageopacity="0"
     inkscape:pagecheckerboard="0"
     inkscape:deskcolor="#505050"
     inkscape:zoom="0.3284"
     inkscape:cx="1111.4495"
     inkscape:cy="1250"
     inkscape:window-width="1920"
     inkscape:window-height="1017"
     inkscape:window-x="-8"
     inkscape:window-y="-8"
     inkscape:window-maximized="1"
     inkscape:current-layer="svg6" />
  <path
     id="path1"
     d="M 127.49392 0.26957696 C 122.98718 0.3273269 118.48889 1.718018 113.93789 4.4030153 C 100.39491 12.390007 32.589993 51.236931 12.385014 62.939919 C 4.0640218 67.756914 0.015051303 75.129081 0.013051305 84.711071 C 5.1318131e-05 124.16603 0.012999987 163.6201 0 203.07606 C 0.001999998 207.80005 0.9910758 211.98494 2.9880738 215.59293 C 5.0410718 219.30393 8.1569916 222.40599 12.373987 224.84698 C 32.579967 236.54997 100.39408 275.394 113.93407 283.38299 C 123.04006 288.75598 131.93097 288.94788 141.10396 283.65189 C 175.11893 264.01191 209.17908 244.45404 243.20905 224.83506 C 247.42604 222.39506 250.54196 219.29103 252.59496 215.58303 C 254.58896 211.97504 255.57991 207.79003 255.58191 203.06503 C 255.58191 203.06503 255.58208 124.17603 255.56908 84.720072 C 255.56708 79.890077 254.53409 75.622042 252.44509 71.959046 C 250.3931 68.35705 247.32002 65.337943 243.19802 62.950945 C 209.17305 43.331965 175.115 23.772869 141.10104 4.1338884 C 136.51604 1.486891 132.00067 0.21182702 127.49392 0.26957696 z M 127.79095 59.018902 C 159.18892 59.018902 186.60212 76.070992 201.2851 101.41697 L 164.34406 122.68902 C 157.02307 110.10103 143.39994 101.63006 127.79095 101.63006 C 104.44998 101.63006 85.527003 120.55191 85.527003 143.89289 A 42.062 42.062 0 0 0 91.101035 164.86094 C 98.386028 177.57892 112.08097 186.15707 127.79095 186.15707 C 143.59794 186.15707 157.37104 177.4701 164.61904 164.61611 L 201.50495 185.98695 C 186.87997 211.54192 159.34592 228.768 127.79095 228.768 C 96.293986 228.768 68.803051 211.61094 54.157066 186.13096 C 47.007073 173.69198 42.916067 159.27087 42.916067 143.89289 C 42.916067 97.018936 80.915001 59.018902 127.79095 59.018902 z " />
</svg>
