<?xml version="1.0" encoding="UTF-8" standalone="no"?>
<svg
   version="1.0"
   width="451.43991pt"
   height="451.43994pt"
   viewBox="0 0 451.43991 451.43994"
   preserveAspectRatio="xMidYMid"
   id="svg223"
   sodipodi:docname="GDSCRIPT.svg"
   inkscape:version="1.3.2 (091e20e, 2023-11-25, custom)"
   xmlns:inkscape="http://www.inkscape.org/namespaces/inkscape"
   xmlns:sodipodi="http://sodipodi.sourceforge.net/DTD/sodipodi-0.dtd"
   xmlns="http://www.w3.org/2000/svg"
   xmlns:svg="http://www.w3.org/2000/svg">
  <defs
     id="defs223" />
  <sodipodi:namedview
     id="namedview223"
     pagecolor="#505050"
     bordercolor="#eeeeee"
     borderopacity="1"
     inkscape:showpageshadow="0"
     inkscape:pageopacity="0"
     inkscape:pagecheckerboard="0"
     inkscape:deskcolor="#505050"
     inkscape:document-units="pt"
     showgrid="false"
     inkscape:zoom="0.378125"
     inkscape:cx="-158.67769"
     inkscape:cy="403.30579"
     inkscape:window-width="1920"
     inkscape:window-height="1017"
     inkscape:window-x="-8"
     inkscape:window-y="-8"
     inkscape:window-maximized="1"
     inkscape:current-layer="g223" />
  <g
     transform="matrix(0.1,0,0,-0.1,-840.1377,842.0083)"
     fill="#000000"
     stroke="none"
     id="g223">
    <path
       id="path2"
       style="display:inline"
       d="m 10372.266,8420.083 -21.387,-49.8926 c -11.88,-28.5119 -52.277,-133.0611 -90.293,-231.665 l -68.906,-181.7725 h -470.4349 c -507.2755,0 -545.2945,-3.5575 -646.2744,-64.1455 -68.9039,-39.2039 -135.4362,-114.0535 -173.4521,-196.0254 l -30.8936,-66.5185 -3.5596,-504.9024 -3.5595,-504.9023 -230.4786,-89.0918 -231.6503,-89.1065 2.373,-276.8115 3.5596,-276.7969 301.7578,-117.6123 c 166.3198,-64.1519 305.3115,-122.3671 310.0635,-127.1191 4.752,-4.752 19.0121,-39.1989 32.08,-74.8389 14.256,-35.6399 38.0067,-95.0387 54.6387,-130.6787 l 28.5205,-65.3467 -135.4394,-307.6904 -135.4248,-308.8769 194.8242,-194.8389 194.8388,-194.8242 307.6905,135.4248 306.5039,136.626 90.293,-39.1993 c 48.7077,-21.3839 111.6607,-45.1493 138.9847,-54.6533 49.896,-15.444 51.093,-16.6337 98.613,-140.1855 27.324,-68.904 81.968,-209.0807 121.172,-312.4366 l 73.652,-186.5185 279.185,2.373 279.184,3.5596 87.906,228.1055 87.919,228.0908 501.329,3.5596 500.156,3.5742 66.518,30.8789 c 112.86,53.4599 199.594,148.4961 239.986,262.5439 8.316,26.136 15.433,204.3413 20.185,538.169 l 5.948,497.7685 229.277,89.1065 228.105,87.9053 v 275.625 276.7968 l -43.96,16.6407 c -24.948,10.6919 -166.325,64.1479 -313.637,121.1718 l -268.491,104.5459 -14.253,47.5196 c -8.316,26.1359 -33.255,87.9033 -54.639,136.6113 l -40.4,87.9199 130.678,299.3701 c 72.468,165.1319 134.252,302.9399 135.44,306.5039 2.376,3.564 -84.357,95.0513 -193.653,203.1592 l -198.398,197.1973 -302.93,-135.4248 c -166.32,-73.6559 -307.696,-131.8682 -314.824,-129.4922 -5.94,2.376 -70.091,28.5129 -142.559,58.2129 l -129.492,53.4521 -119.985,310.0782 -118.799,308.8769 h -276.811 z m 66.738,-360.0879 H 10672.002 10905 L 11005.005,7800 l 101.001,-261.0059 108.999,-45 c 61,-24.9999 115,-46.999 120,-48.999 6,-2 124.99,46.9991 264.99,108.999 l 255,114.0088 167.007,-165.9961 c 92,-90.9999 164.993,-168.0058 162.993,-171.0058 -1,-3 -52.994,-119.0031 -113.994,-258.003 l -109.995,-251.997 33.999,-74.0039 c 18,-41 38.996,-92.9903 45.996,-114.9903 l 11.997,-40.0048 225.996,-88.0079 c 124,-47.9999 243.009,-92.997 264.009,-101.997 l 37.002,-14.0039 v -232.9981 -232.0019 l -192.012,-73.9893 -192.993,-75 -4.995,-419.0039 c -4,-280.9997 -10.007,-431.003 -17.007,-453.0029 -34,-95.9999 -107.002,-176.0011 -202.002,-221.001 l -56.001,-26.001 -420.996,-2.9883 -421.992,-3.0029 -74.004,-191.9971 -74.004,-192.0117 -235.005,-2.9883 -234.99,-2.0068 -62.007,157.002 c -33,86.9999 -78.997,204.9981 -101.997,262.998 -40,103.9999 -40.998,104.9932 -82.998,117.9932 -23,8 -75.997,28.0107 -116.997,46.0107 l -76.011,33.0029 -257.9881,-115.0048 -258.9991,-114.0088 -164.0039,164.0039 -164.0039,164.0039 113.9942,259.9951 114.0088,258.999 -24.0088,55.0049 c -14,30 -33.9961,79.9951 -45.9961,109.9951 -11,30 -22.9971,59.003 -26.9971,63.0029 -4,4 -121.006,53.0069 -261.0059,107.0069 l -253.9892,98.9941 -3.0029,232.9981 -2.0069,232.998 195,75 194.0039,75 3.003,425.0098 3.0029,424.9951 26.001,56.001 c 31.9999,68.9999 88.001,132 146.0009,165 85,50.9999 116.9995,53.9941 543.9991,53.9941 h 395.9911 l 58.008,153.0029 c 32,83 65.996,171.0001 75.996,195 z" />
    <path
       d="m 10182,7305 c -527,-136 -801,-729 -563,-1219 207,-426 719,-609 1147,-411 204,94 367,269 450,484 l 29,73 54,-58 c 173,-186 171,-460 -6,-645 -115,-121 -215,-149 -540,-149 h -173 v -201 -201 l 253,5 c 272,5 328,14 468,72 219,93 402,291 478,520 97,292 38,605 -158,841 -110,132 -292,244 -461,283 -101,23 -135,25 -387,23 l -193,-2 v -200 -200 h 135 c 74,0 135,-2 135,-5 0,-14 -56,-114 -83,-149 -103,-131 -300,-200 -461,-162 -265,62 -426,318 -361,571 48,184 213,334 388,353 l 62,7 3,198 2,197 h -62 c -35,-1 -105,-12 -156,-25 z"
       id="path3"
       style="display:inline" />
  </g>
</svg>
