<?xml version="1.0" encoding="UTF-8" standalone="no"?>
<svg
   width="2500"
   height="2500"
   viewBox="-274.198077723036 -405.5883488489685 1552.747112560079 1354.8883488489685"
   version="1.1"
   id="svg4"
   sodipodi:docname="Godot.svg"
   inkscape:version="1.3.2 (091e20e, 2023-11-25, custom)"
   xmlns:inkscape="http://www.inkscape.org/namespaces/inkscape"
   xmlns:sodipodi="http://sodipodi.sourceforge.net/DTD/sodipodi-0.dtd"
   xmlns="http://www.w3.org/2000/svg"
   xmlns:svg="http://www.w3.org/2000/svg">
  <defs
     id="defs4" />
  <sodipodi:namedview
     id="namedview4"
     pagecolor="#505050"
     bordercolor="#eeeeee"
     borderopacity="1"
     inkscape:showpageshadow="0"
     inkscape:pageopacity="0"
     inkscape:pagecheckerboard="0"
     inkscape:deskcolor="#505050"
     inkscape:zoom="0.23221387"
     inkscape:cx="766.53476"
     inkscape:cy="2056.2941"
     inkscape:window-width="1920"
     inkscape:window-height="1017"
     inkscape:window-x="-8"
     inkscape:window-y="-8"
     inkscape:window-maximized="1"
     inkscape:current-layer="svg4" />
  <path
     id="path1"
     d="m 418.80024,74.6994 c -42.49992,9.399982 -84.60028,22.600266 -124.0002,42.30023 0.9,34.69992 3.09944,68.00083 7.69944,101.80077 -15.29998,9.69998 -31.39931,18.09926 -45.69929,29.59924 -14.29998,11.49998 -29.39988,21.80098 -42.59986,34.80094 -26.64571,-17.59261 -54.29251,-33.61986 -82.80024,-48.0005 -30.89994,33.19992 -59.799549,68.9005 -83.399503,109.00042 17.284615,27.968 36.078822,54.97439 56.299213,80.89933 h 0.60048 l 0.65013,236.83087 c 0.8,0 0.64972,0.16877 1.44972,0.26877 l 150.50001,14.70014 c 12.03198,1.16482 21.41615,10.93119 22.09996,23.00007 l 4.19969,60.00033 116.40024,8.39939 7.8996,-54.59968 c 1.74277,-12.07338 12.102,-21.02549 24.30049,-20.99969 h 158.79993 c 12.19385,0.12398 22.4724,9.12834 24.19981,21.19985 l 7.8996,54.39952 116.40023,-8.39939 4.20091,-60.00033 c 0.68381,-12.06888 10.06798,-21.83525 22.09996,-23.00007 l 150.39932,-14.70014 c 0.8,-0.1 1.72772,-0.20966 1.72772,-0.20966 4.90454,-0.40147 3.53768,-6.11181 3.37209,-9.98995 V 425.09983 h -1.60006 c 0,0 38.40031,-51.49997 56.10027,-80.09991 C 952.49994,305 923.69997,269.20012 892.90003,236.10018 c -28.45178,14.30521 -56.00327,30.33482 -82.50061,47.9993 -13.09998,-13.09998 -27.89974,-23.69923 -42.3997,-34.89921 -14.49998,-11.19996 -30.29917,-19.80047 -45.49913,-29.60045 4.35491,-33.73924 6.89189,-67.68831 7.59997,-101.70008 C 690.80064,98.099772 648.89938,84.99949 606.49946,75.599508 589.52168,104.47336 574.1972,134.288 560.60001,164.89945 c -15.89996,-2.6 -32.00039,-3.59938 -50.10035,-3.79938 h 2.70032 v -0.90011 c -16.17671,0.0483 -32.32526,1.35226 -48.30014,3.90007 -13.6457,-30.65657 -29.03748,-60.50574 -46.0996,-89.40063 z m 372.59986,649.60025 -4.19969,60.50012 c -0.84122,12.24171 -10.4753,22.04569 -22.70044,23.10075 l -160.39999,11.50003 h -1.69953 c -12.21651,-0.11683 -22.52813,-9.11323 -24.30049,-21.20106 L 570.0002,742.3006 H 453.5005 l -8.10098,55.89889 c -1.76631,12.05056 -12.02161,21.03506 -24.1998,21.20106 H 419.3995 L 259.1002,807.90052 c -12.26403,-1.00861 -21.95214,-10.82456 -22.79991,-23.10075 l -4.10022,-60.50012 -121.87584,-20.56931 -3.92458,0.26956 c 0.1,14.49998 0.30084,30.4 0.30084,33.6 0,142.3997 180.69951,210.90008 405.19907,211.70008 h 0.60047 c 224.49956,-0.8 405.20028,-69.30038 405.20028,-211.70008 0,-3.3 0.20016,-19.10002 0.20016,-33.6 -42.28038,5.79665 -84.37262,13.38844 -126.50037,20.29975 z m -492.7,-289.39931 c 50.1081,3.5e-4 90.74404,40.59177 90.79931,90.69984 0.0405,36.73428 -22.05668,69.87425 -55.98252,83.95908 -33.92578,14.08479 -72.99506,6.33901 -98.98425,-19.62172 -25.9892,-25.96072 -33.7778,-65.02149 -19.7302,-98.96268 14.04763,-33.94127 47.16336,-56.07478 83.89766,-56.07452 z m 426.99939,0 c 36.7343,-2.6e-4 69.85003,22.13325 83.89766,56.07452 14.0476,33.94119 6.259,73.00196 -19.7302,98.96268 -25.98919,25.96073 -65.05847,33.70651 -98.98425,19.62172 -33.92584,-14.08483 -56.02304,-47.2248 -55.98252,-83.95908 0.0553,-50.10807 40.69121,-90.69949 90.79931,-90.69984 z m -213.89941,53.69957 c 15.99998,0 28.99998,11.79968 28.99998,26.29966 v 82.80024 c 0,14.59996 -13,26.40034 -28.99998,26.40034 -15.99996,0 -28.9005,-11.80038 -28.9005,-26.40034 v -82.80024 c 0,-14.49998 12.90054,-26.29966 28.9005,-26.29966 z"
     sodipodi:nodetypes="cccscccccccccccccccccccccccccccscccccccccccccccccccccccccsccsccsssssssssssssssssss"
     style="display:inline" />
  <path
     fill="#414042"
     d="M 656.8,531 A 60.2,60.2 0 1 0 717,470.8 60.1,60.1 0 0 0 656.8,531 m -289.2,0 a 60.2,60.2 0 1 1 -60.2,-60.2 60.1,60.1 0 0 1 60.2,60.2"
     id="path4"
     style="display:inline" />
</svg>
