<?xml version="1.0" encoding="UTF-8" standalone="no"?>
<!-- Created with Inkscape (http://www.inkscape.org/) -->

<svg
   version="1.1"
   id="svg1"
   width="512"
   height="512"
   viewBox="0 0 512 512">
  <defs
     id="defs1" />
  <sodipodi:namedview
     id="namedview1"
     pagecolor="#505050"
     bordercolor="#eeeeee"
     borderopacity="1" />
  <g
     id="g1">
    <path
       style="fill:#ffffff;fill-opacity:1"
       d="m 410.97199,208.29233 74.83556,-155.595619 -33.05237,11.225335 -96.03898,57.373934 -21.82704,4.36541 -7.79537,11.22533 22.76248,9.97808 108.51157,-80.76005 21.51523,-9.042631 -30.24604,58.621191 -16.52619,-16.526184 z"
       id="path5"
       inkscape:label="EarUp" />
    <path
       style="fill:#ffffff;fill-opacity:1"
       d="m 357.02801,201.12058 6.2363,-9.97807 0.31182,-27.12789 -11.22534,-7.48356 -16.838,6.2363 5.30085,20.57978 z"
       id="path6"
       inkscape:label="EarDown" />
    <path
       style="fill:#ffffff;fill-opacity:1"
       d="m 343.29733,285.75038 9.48091,72.31954 -12.56772,17.41842 -32.63199,5.51216 41.45144,-0.66146 15.65454,-14.5521 3.96875,-18.96183 z"
       id="path7"
       inkscape:label="Jaw" />
    <path
       style="fill:#ffffff;fill-opacity:1"
       d="m 259.5125,352.55776 19.62329,-7.93751 3.52778,-2.42535 10.36286,0.88194 4.63021,2.64584 -9.48091,-21.1667 -20.28475,-23.59204 -15.87502,-13.22919 5.95313,24.69448 1.54341,19.62329 z"
       id="path8"
       inkscape:label="Tooth" />
    <path
       style="fill:#ffffff;fill-opacity:1"
       d="m 96.352558,439.09867 9.480912,-13.7804 14.55211,-10.25262 -39.46707,-14.11113 -9.150186,0.22049 -14.662346,6.28386 5.732647,16.42624 14.772589,-4.40973 z"
       id="path9"
       inkscape:label="Chin" />
    <path
       style="fill:#ffffff;fill-opacity:1"
       d="m 44.745432,371.21559 4.677223,-38.50913 15.746651,-34.29964 24.789281,-9.97807 23.230203,-0.93545 96.3508,31.64921 46.22464,36.94303 -7.27605,8.81946 -37.04172,20.9462 -46.74312,7.27605 -38.8056,-22.93058 -47.404581,-6.83508 z"
       id="path10"
       inkscape:label="MouthDown" />
    <path
       style="fill:#ffffff;fill-opacity:1"
       d="m 121.6078,282.50426 62.36297,18.39708 39.9123,-2.1827 7.79537,-46.46042 28.37515,-19.33252 0.62363,-7.17174 27.75153,-19.64434 -7.79538,-22.45067 -23.69793,1.55908 -33.676,12.16078 -33.98782,-4.0536 -22.13885,11.22534 -13.71986,-0.31182 -21.51522,42.40682 z"
       id="path11"
       inkscape:label="MouthUp" />
    <path
       style="fill:#ffffff;fill-opacity:1"
       d="m 145.30054,194.90998 5.51216,-6.83508 9.03994,0.44097 9.48092,-8.37848 -6.17362,-8.59897 -16.75697,11.90627 z"
       id="path12"
       inkscape:label="Nose" />
    <path d="m 211.66695,158.08875 14.5521,6.17362 0.44097,-6.39411 16.75697,-16.75696 z"/>
    <path d="m 169.99502,171.53842 5.73264,8.158 35.05734,11.2448 44.97923,-20.72572 -2.64584,-9.26043 8.158,-11.90626 -6.6146,-0.66146 -20.28474,23.81253 -28.44275,6.61459 -15.87502,-6.83508 -9.92189,3.74827 z"/>
    <path d="m 260.83541,92.604289 -11.46529,14.552101 -3.52778,17.63891 -38.80561,11.02432 -39.90804,28.66324 1.32292,-16.09551 3.74827,-9.03994 16.31599,-18.30038 38.58512,-25.576418 z"/>
  </g>
</svg>
