<?xml version="1.0" encoding="UTF-8" standalone="no"?>
<svg
   data-name="Layer 1"
   viewBox="0 0 101.89944 102.58593"
   x="0px"
   y="0px"
   version="1.1"
   id="svg2"
   sodipodi:docname="noun-review-6602811.svg"
   width="101.89944"
   height="102.58593"
   inkscape:version="1.3.2 (091e20e, 2023-11-25, custom)"
   xmlns:inkscape="http://www.inkscape.org/namespaces/inkscape"
   xmlns:sodipodi="http://sodipodi.sourceforge.net/DTD/sodipodi-0.dtd"
   xmlns="http://www.w3.org/2000/svg"
   xmlns:svg="http://www.w3.org/2000/svg">
  <sodipodi:namedview
     id="namedview2"
     pagecolor="#505050"
     bordercolor="#eeeeee"
     borderopacity="1"
     inkscape:showpageshadow="0"
     inkscape:pageopacity="0"
     inkscape:pagecheckerboard="0"
     inkscape:deskcolor="#505050"
     showguides="true"
     inkscape:zoom="3.6283417"
     inkscape:cx="-42.581436"
     inkscape:cy="123.61019"
     inkscape:window-width="1920"
     inkscape:window-height="1017"
     inkscape:window-x="-8"
     inkscape:window-y="-8"
     inkscape:window-maximized="1"
     inkscape:current-layer="svg2" />
  <defs
     id="defs1">
    <inkscape:path-effect
       effect="fillet_chamfer"
       id="path-effect13"
       is_visible="true"
       lpeversion="1"
       nodesatellites_param="F,0,1,1,0,1.0445387,0,1 @ F,0,1,1,0,1.0445387,0,1 @ F,0,1,1,0,1.0445387,0,1 @ F,0,0,1,0,1.0445387,0,1 @ F,0,0,1,0,0.8631031,0,1 @ F,0,0,1,0,0,0,1 @ F,0,0,1,0,0.99197313,0,1"
       radius="0"
       unit="px"
       method="auto"
       mode="F"
       chamfer_steps="1"
       flexible="false"
       use_knot_distance="true"
       apply_no_radius="true"
       apply_with_radius="true"
       only_selected="false"
       hide_knots="false" />
    <inkscape:path-effect
       effect="fillet_chamfer"
       id="path-effect12"
       is_visible="true"
       lpeversion="1"
       nodesatellites_param="F,0,0,1,0,0,0,1 @ F,0,0,1,0,0,0,1 @ F,0,0,1,0,0,0,1 @ F,0,0,1,0,0,0,1 @ F,0,0,1,0,0,0,1 @ F,0,0,1,0,0,0,1 @ F,0,0,1,0,0,0,1"
       radius="0"
       unit="px"
       method="auto"
       mode="F"
       chamfer_steps="1"
       flexible="false"
       use_knot_distance="true"
       apply_no_radius="true"
       apply_with_radius="true"
       only_selected="false"
       hide_knots="false" />
    <style
       id="style1">
      .cls-1 {
        stroke-width: 0px;
      }
    </style>
  </defs>
  <rect
     style="display:inline;fill:#ffffff;stroke-width:58.4263;stroke-miterlimit:0;stroke-dasharray:146.066"
     id="rect6-2"
     width="38.998531"
     height="4.8231401"
     x="16.30508"
     y="71.412033"
     ry="2.4115701" />
  <rect
     style="display:inline;fill:#ffffff;stroke-width:37.4651;stroke-miterlimit:0;stroke-dasharray:93.6628"
     id="rect7-8"
     width="16.035622"
     height="4.8231401"
     x="16.30508"
     y="79.412033"
     ry="2.4115701" />
  <path
     class="cls-1"
     d="m -45.895067,151.22463 c -1.132623,0 -2.052404,-0.91788 -2.052404,-2.05241 v -3.44728 c -0.718342,0.71834 -4.811749,4.90297 -5.262137,5.18803 -0.315463,0.19763 -0.687936,0.31166 -1.087015,0.31166 h -11.615089 c -0.851367,0 -1.554506,0.70314 -1.554506,1.5564 v 13.64279 c 0,0.85137 0.703139,1.55451 1.554506,1.55451 h 15.455746 c 2.719436,-2.38307 5.822748,-4.09721 9.093292,-5.14432 v -10.05298 c 0,-0.85136 -0.703138,-1.5564 -1.554506,-1.5564 h -2.975987 z m -2.966485,20.86421 c 4.26064,-4.09721 9.366946,-6.38526 15.334122,-6.39856 1.947884,-0.004 2.677628,0.15963 4.498187,0.45799 3.137518,0.65373 6.161014,2.00869 8.817737,4.063 l 2.050504,1.79965 c 3.762742,3.76274 5.851254,8.45477 6.305443,13.38244 0.45609,4.95428 -0.784855,10.03398 -3.720933,14.30032 -0.585316,0.80196 -0.513101,1.93268 0.210941,2.65482 l 5.8056445,5.78284 -2.6586235,2.65863 -5.72963,-5.70683 c -0.758249,-0.75445 -1.961186,-0.79056 -2.763144,-0.11212 -2.5351,1.84526 -5.383761,3.0748 -8.338843,3.68292 -2.295653,0.38768 -3.662022,0.56822 -6.046992,0.38958 -5.180421,-0.38577 -10.003571,-2.59211 -13.686497,-6.25603 -8.490873,-8.49087 -8.555486,-22.17547 -0.07601,-30.69865 v 0 z m -5.378059,-0.006 c -7.569192,10.23541 -6.427067,24.61175 2.559804,33.59672 5.604204,5.6042 13.317825,8.16021 20.845208,7.38485 v 7.27464 c 0,0.40858 -0.35347,0.75065 -0.741146,0.75065 l -101.660535,0.0152 c -0.39528,0 -0.81906,-0.35537 -0.81906,-0.76395 V 87.955453 c 0,-0.40478 0.33827,-0.741146 0.74115,-0.741146 h 20.67607 v 1.953585 c 0,1.132623 0.91978,2.052405 2.0524,2.052405 h 56.279596 c 1.132623,0 2.052404,-0.919782 2.052404,-2.052405 v -1.953585 h 20.676075 c 0.404779,0 0.741146,0.338267 0.741146,0.741146 V 161.7356 c -2.141722,-0.21854 -4.294847,-0.17104 -6.427067,0.14443 v -9.099 c 0,-3.11661 -2.542701,-5.65931 -5.659315,-5.65931 h -0.923582 v -6.34915 c 0,-1.82436 -2.219638,-2.74984 -3.521394,-1.43289 l -7.782034,7.78204 h -10.765621 c -3.116614,0 -5.659316,2.5427 -5.659316,5.65931 v 13.64279 c 0,3.11662 2.542702,5.65932 5.659316,5.65932 h 11.674 z m 26.544431,7.47417 -9.439161,11.1856 -3.863461,-4.578 c -0.729744,-0.86277 -2.021998,-0.97109 -2.886669,-0.24134 -0.86277,0.72974 -0.971091,2.02199 -0.241347,2.88666 l 5.404665,6.40427 c 0.81146,0.97489 2.316556,1.011 3.14892,0.0266 l 11.003169,-13.03657 c 0.729743,-0.86277 0.623323,-2.15502 -0.241348,-2.88667 -0.86277,-0.72974 -2.155025,-0.62332 -2.886669,0.24135 v 0 z m -73.78584,34.29416 h 47.279416 c 1.132623,0 2.052405,-0.91978 2.052405,-2.05241 0,-1.13262 -0.919782,-2.0524 -2.052405,-2.0524 h -47.279416 c -1.13262,0 -2.05241,0.91978 -2.05241,2.0524 0,1.13263 0.91979,2.05241 2.05241,2.05241 z m 0,-10.56798 h 38.52249 c 1.132624,0 2.052405,-0.91788 2.052405,-2.05241 0,-1.13452 -0.917881,-2.0524 -2.052405,-2.0524 h -38.52249 c -1.13262,0 -2.05241,0.91978 -2.05241,2.0524 0,1.13262 0.91979,2.05241 2.05241,2.05241 z m -10.74852,-4.61031 -9.43916,11.1856 -3.86346,-4.578 c -0.72974,-0.86277 -2.022,-0.97109 -2.88667,-0.24135 -0.86277,0.72975 -0.97109,2.022 -0.24135,2.88667 l 5.40467,6.40426 c 0.81146,0.9768 2.31655,1.011 3.14892,0.0266 l 11.00317,-13.03657 c 0.72974,-0.86277 0.62332,-2.15503 -0.24135,-2.88667 -0.86277,-0.72974 -2.15503,-0.62332 -2.88667,0.24135 v 0 z m 106.605309,11.32243 -4.737634,4.73763 15.4633477,15.46335 4.7376336,-4.73763 z m -15.265708,-0.0741 v 15.81492 c 0,2.90377 -2.38307,5.28684 -5.286842,5.28684 H -138.71316 c -2.90377,0 -5.28684,-2.38307 -5.28684,-5.28684 V 82.55839 c 0,-2.903773 2.38307,-5.288743 5.28684,-5.288743 h 26.07504 v 5.839851 h -20.67607 c -2.67003,0 -4.84596,2.177829 -4.84596,4.845955 V 220.34125 c 0,2.67953 2.26525,4.85355 4.92387,4.85355 l 101.660535,-0.0152 c 2.683329,0 4.845955,-2.17403 4.845955,-4.83835 v -8.03669 c 2.014397,-0.5454 3.977484,-1.33976 5.839851,-2.38117 v 0 z M -26.72979,162.49195 V 87.955453 c 0,-2.670026 -2.177829,-4.845955 -4.845955,-4.845955 H -52.25182 v -5.839851 h 26.075039 c 2.903772,0 5.286842,2.38307 5.286842,5.288743 v 82.31093 c -1.860467,-1.04141 -3.823554,-1.83197 -5.839851,-2.37547 v 0 z m -19.779098,11.92485 c 7.168213,-7.16822 18.828911,-7.23853 26.016127,-0.0532 7.175814,7.17581 7.225224,18.8118 0.05701,26.01232 -7.162511,7.19482 -18.815608,7.22903 -26.016127,0.0608 -7.187216,-7.15491 -7.234725,-18.84222 -0.05701,-26.01993 z m 2.89427,2.89427 c -5.571898,5.6023 -5.550993,14.64998 0.04751,20.22378 5.598503,5.5719 14.648086,5.5605 20.227586,-0.0437 5.562396,-5.5871 5.5814,-14.60057 -0.04941,-20.23138 -5.619407,-5.589 -14.629083,-5.5453 -20.227586,0.0532 v 0 z m -75.380252,-43.0815 c 1.13262,0 2.0524,0.91978 2.0524,2.05241 v 3.44728 c 0.71834,-0.71834 4.81175,-4.90297 5.26214,-5.18803 0.31546,-0.19764 0.68793,-0.31166 1.08701,-0.31166 h 11.615092 c 0.851368,0 1.554507,-0.70314 1.554507,-1.5545 v -13.64279 c 0,-0.85137 -0.703139,-1.55451 -1.554507,-1.55451 h -22.992632 c -0.85137,0 -1.55451,0.70314 -1.55451,1.55451 v 13.64279 c 0,0.85136 0.70314,1.5545 1.55451,1.5545 z m -2.05241,10.45397 c 0,1.82436 2.21964,2.74984 3.5214,1.43288 l 7.78203,-7.78203 h 10.765622 c 3.116614,0 5.659315,-2.54271 5.659315,-5.65932 v -13.64279 c 0,-3.11662 -2.542701,-5.65932 -5.659315,-5.65932 h -22.992632 c -3.11661,0 -5.65931,2.5427 -5.65931,5.65932 v 13.64279 c 0,3.11661 2.5427,5.65932 5.65931,5.65932 h 0.92358 z m 3.0159,20.76729 h -5.83605 v 18.69969 h 5.83605 z m -7.88846,-4.10481 c -1.13262,0 -2.0524,0.91978 -2.0524,2.05241 v 22.80259 c 0,1.13262 0.91978,2.0524 2.0524,2.0524 h 9.94086 c 0.91028,0 1.68183,-0.59291 1.95169,-1.41387 5.87215,0.76015 5.95577,3.81025 15.358823,3.76654 l 14.340226,0.008 c 3.789347,0.002 6.297841,-3.97748 4.66732,-7.38676 1.755946,-1.42528 2.403974,-3.83305 1.539303,-5.95577 3.055803,-2.0543 3.055803,-6.53159 0,-8.58589 1.375871,-3.37697 -1.126922,-7.1093 -4.788943,-7.1093 h -9.142702 c 1.594414,-4.08771 3.532796,-10.84924 0.572013,-14.59298 -3.673424,-4.64641 -10.03778,-2.87146 -10.34754,3.5271 -0.46749,9.6805 -6.97247,9.43916 -12.63559,11.50296 -0.37437,-0.40858 -0.91408,-0.66703 -1.5127,-0.66703 h -9.94086 z m 11.99327,4.86116 v 16.51996 c 7.05989,0.70883 4.68252,3.75133 15.250502,3.78934 l 14.347827,-0.008 c 1.398676,0 1.398676,-2.12842 0,-2.12842 h -9.465765 c -1.132623,0 -2.052405,-0.91978 -2.052405,-2.0524 0,-1.13263 0.919782,-2.05241 2.052405,-2.05241 h 10.881544 c 1.398676,0 1.398676,-2.12842 0,-2.12842 h -10.030176 c -1.132624,0 -2.052405,-0.91978 -2.052405,-2.0524 0,-1.13263 0.919781,-2.05241 2.052405,-2.05241 h 11.947654 c 1.398676,0 1.398676,-2.12842 0,-2.12842 h -10.478665 c -1.132623,0 -2.052404,-0.91978 -2.052404,-2.0524 0,-1.13262 0.919781,-2.0524 2.052404,-2.0524 h 8.561187 c 1.398676,0 1.398676,-2.12842 0,-2.12842 h -12.28022 c -1.512698,0 -2.512295,-1.60582 -1.835762,-2.96649 0.978693,-1.96499 2.428679,-5.55099 2.869566,-8.77403 0.25465,-1.85666 0.186237,-3.51759 -0.530205,-4.42597 -1.280852,-1.61912 -2.924676,-1.45759 -3.052001,1.18583 -0.665131,13.74161 -9.986466,12.80853 -16.185486,15.50706 z m 67.068013,-46.20571 h 5.83605 v -18.69969 h -5.83605 z m 7.888455,4.10481 c 1.132623,0 2.052404,-0.91788 2.052404,-2.05241 V 99.251279 c 0,-1.132623 -0.919781,-2.052404 -2.052404,-2.052404 h -9.940859 c -0.91028,0 -1.681832,0.592917 -1.951685,1.413878 -5.872157,-0.760149 -5.955774,-3.81025 -15.358827,-3.766542 l -14.340226,-0.0076 c -3.789346,-0.0019 -6.297841,3.977483 -4.667319,7.386759 -1.755946,1.42528 -2.403974,3.83305 -1.539304,5.95577 -3.055802,2.0543 -3.055802,6.53349 0,8.58589 -1.375871,3.37697 1.128823,7.1093 4.788944,7.1093 h 9.142702 c -1.594414,4.08771 -3.532796,10.84924 -0.572013,14.59298 3.673424,4.64452 10.037778,2.87147 10.347539,-3.5271 0.467492,-9.68051 6.972474,-9.43916 12.63559,-11.50296 0.374374,0.40858 0.91408,0.66703 1.512698,0.66703 h 9.940859 z m -11.993264,-4.86116 v -16.51996 c -6.24463,-0.62712 -6.544889,-3.684822 -15.258107,-3.789343 l -14.340226,0.0076 c -1.398675,0 -1.398675,2.128423 0,2.128423 h 9.465766 c 1.132623,0 2.052404,0.91978 2.052404,2.0524 0,1.13263 -0.919781,2.05241 -2.052404,2.05241 h -10.881545 c -1.398675,0 -1.398675,2.12842 0,2.12842 h 10.030177 c 1.132623,0 2.052405,0.91978 2.052405,2.0524 0,1.13262 -0.919782,2.05241 -2.052405,2.05241 h -11.947654 c -1.398676,0 -1.398676,2.12841 0,2.12841 h 10.478665 c 1.132623,0 2.052404,0.91979 2.052404,2.05241 0,1.13262 -0.919781,2.0524 -2.052404,2.0524 h -8.561188 c -1.398675,0 -1.398675,2.12842 0,2.12842 h 12.28022 c 1.512699,0 2.512296,1.60582 1.835762,2.96649 -0.978693,1.96498 -2.428678,5.55099 -2.869565,8.77403 -0.25465,1.85666 -0.186237,3.51759 0.530204,4.42597 1.280853,1.62102 2.924677,1.45759 3.052002,-1.18583 0.665131,-13.74161 9.986468,-12.80853 16.185489,-15.50706 z m -5.393263,-45.981462 -6.440369,-0.0038 c -0.819061,0 -1.592514,-0.494097 -1.907976,-1.303657 -4.391765,-11.225512 -18.146676,-15.489952 -28.110339,-8.694213 -3.072906,2.096113 -5.493983,5.079701 -6.890758,8.580191 -0.266053,0.824762 -1.039509,1.41958 -1.953589,1.41958 h -6.87365 v 13.851829 h 52.176681 v -13.85183 z"
     id="path1-9"
     style="display:inline;fill:#ffffff;fill-rule:evenodd" />
  <path
     id="rect8"
     style="fill:#ff0000;fill-opacity:0.522593;stroke-width:49.9231;stroke-miterlimit:0;stroke-dasharray:124.808"
     d="M -133.05078 87.230469 C -133.62236 87.230469 -134.08398 87.690136 -134.08398 88.261719 L -134.08398 220.28125 C -134.08398 220.85283 -133.62236 221.3125 -133.05078 221.3125 L -31.761719 221.3125 C -31.190136 221.3125 -30.730469 220.85283 -30.730469 220.28125 L -30.730469 88.261719 C -30.730469 87.690136 -31.190136 87.230469 -31.761719 87.230469 L -52.240234 87.230469 L -52.240234 89.222656 C -52.240234 90.370495 -53.162708 91.294922 -54.310547 91.294922 L -110.58203 91.294922 C -111.72987 91.294922 -112.6543 90.370495 -112.6543 89.222656 L -112.6543 87.230469 L -133.05078 87.230469 z " />
  <path
     id="rect9"
     style="fill:#ff0000;fill-opacity:0.522593;stroke-width:58.3342;stroke-miterlimit:0;stroke-dasharray:145.836"
     d="M -138.9707 77.308594 C -141.76007 77.308594 -144.00586 79.554386 -144.00586 82.34375 L -144.00586 225.95703 C -144.00586 228.7464 -141.76007 230.99219 -138.9707 230.99219 L -25.923828 230.99219 C -23.134464 230.99219 -20.888672 228.7464 -20.888672 225.95703 L -20.888672 82.34375 C -20.888672 79.554386 -23.134464 77.308594 -25.923828 77.308594 L -52.240234 77.308594 L -52.240234 83.234375 L -31.363281 83.234375 C -28.786515 83.234375 -26.710937 85.307998 -26.710938 87.884766 L -26.710938 220.55273 C -26.710938 223.1295 -28.786515 225.20312 -31.363281 225.20312 L -133.42773 225.20312 C -136.0045 225.20312 -138.08008 223.1295 -138.08008 220.55273 L -138.08008 87.884766 C -138.08008 85.307998 -136.0045 83.234375 -133.42773 83.234375 L -112.6543 83.234375 L -112.6543 77.308594 L -138.9707 77.308594 z " />
  <rect
     style="display:inline;fill:#ffffff;stroke-width:105.091;stroke-miterlimit:0;stroke-dasharray:262.729"
     id="rect5-2"
     width="80.586243"
     height="7.5515203"
     x="-123.72099"
     y="166.66699"
     ry="3.7757602" />
  <path
     d="m -95.101419,155.38488 -0.0078,-0.004 c -0.751422,2.06763 -2.719659,3.55835 -5.044221,3.55835 h -12.11967 c -2.97177,0 -5.38602,-2.41668 -5.38602,-5.38601 v -32.31834 c 0,-2.97176 2.41667,-5.38602 5.38602,-5.38602 h 12.11973 c 2.326986,0 4.295233,1.49072 5.046655,3.56078 h 0.0078 v 35.9735 z m 49.945465,-29.80729 -6.585876,27.30336 c -0.860508,3.56805 -4.057692,6.05986 -7.7736,6.05986 h -23.158403 c -2.399716,0 -4.78245,-0.40963 -7.039154,-1.15622 V 115.7 c 1.185313,-1.2047 2.19126,-2.57665 2.954804,-4.07952 l 7.085186,-13.954636 c 1.003516,-1.9731 2.940258,-3.257795 5.053939,-3.349902 3.667444,-0.128454 7.068246,1.514968 9.167373,4.438257 2.05793,2.865091 2.537881,6.532531 1.287121,9.816961 l -2.775429,7.28155 h 14.008011 c 2.467575,0 4.758211,1.10775 6.285292,3.03721 1.505274,1.90279 2.048232,4.34129 1.490736,6.6901 z"
     style="display:inline;fill:#ff00ff;fill-opacity:0.994106;stroke-width:0px"
     id="path1-3" />
  <rect
     style="display:inline;fill:#ffffff;stroke-width:105.091;stroke-miterlimit:0;stroke-dasharray:262.729"
     id="rect10"
     width="80.586243"
     height="7.5515203"
     x="-123.72099"
     y="180.66701"
     ry="3.7757602" />
  <path
     style="fill:#ff00ff;fill-opacity:0.994106;stroke-width:50;stroke-miterlimit:0;stroke-dasharray:125"
     d="m -108.46046,74.321005 -0.0827,11.747758 a 1.0372119,1.0372119 45.201655 0 0 1.03719,1.044513 h 50.139912 a 1.0519203,1.0519203 135.20174 0 0 1.051895,-1.044513 l 0.08273,-11.747758 a 1.0437941,1.0437941 45.383047 0 0 -1.037162,-1.051124 l -5.790325,-0.03665 c -0.476669,-0.003 -1.027197,-0.355319 -1.234236,-0.784686 -3.258413,-6.757422 -6.745841,-11.586045 -17.460763,-12.424186 -2.654389,-0.207631 -12.589897,-0.1005 -18.121637,12.194985 -0.224762,0.499572 -0.836412,0.918912 -1.384182,0.928694 l -6.149,0.109802 a 1.0708706,1.0708706 134.69015 0 0 -1.05172,1.063162 z"
     id="path12"
     sodipodi:nodetypes="cccccacc"
     inkscape:path-effect="#path-effect13"
     inkscape:original-d="m -108.45311,73.276492 -0.0974,13.836784 h 52.228991 l 0.09744,-13.836784 -7.697929,-0.04872 c -3.374758,-7.163603 -6.709495,-12.333394 -17.831913,-13.20341 -2.718402,-0.212638 -13.07334,-0.09515 -18.513999,13.105968 z" />
</svg>
