<?xml version="1.0" encoding="UTF-8" standalone="no"?>
<svg
   data-name="Layer 1"
   viewBox="0 0 800.00002 526.6991"
   x="0px"
   y="0px"
   version="1.1"
   id="svg2"
   sodipodi:docname="opentocriticism.svg"
   width="800"
   height="526.6991"
   inkscape:version="1.3.2 (091e20e, 2023-11-25, custom)"
   xml:space="preserve"
   xmlns:inkscape="http://www.inkscape.org/namespaces/inkscape"
   xmlns:sodipodi="http://sodipodi.sourceforge.net/DTD/sodipodi-0.dtd"
   xmlns="http://www.w3.org/2000/svg"
   xmlns:svg="http://www.w3.org/2000/svg"><sodipodi:namedview
     id="namedview2"
     pagecolor="#505050"
     bordercolor="#eeeeee"
     borderopacity="1"
     inkscape:showpageshadow="0"
     inkscape:pageopacity="0"
     inkscape:pagecheckerboard="0"
     inkscape:deskcolor="#505050"
     showguides="true"
     inkscape:zoom="0.45354271"
     inkscape:cx="231.51072"
     inkscape:cy="453.09955"
     inkscape:window-width="1920"
     inkscape:window-height="1017"
     inkscape:window-x="-8"
     inkscape:window-y="-8"
     inkscape:window-maximized="1"
     inkscape:current-layer="svg2" /><defs
     id="defs1"><inkscape:path-effect
       effect="fillet_chamfer"
       id="path-effect13"
       is_visible="true"
       lpeversion="1"
       nodesatellites_param="F,0,1,1,0,1.0445387,0,1 @ F,0,1,1,0,1.0445387,0,1 @ F,0,1,1,0,1.0445387,0,1 @ F,0,0,1,0,1.0445387,0,1 @ F,0,0,1,0,0.8631031,0,1 @ F,0,0,1,0,0,0,1 @ F,0,0,1,0,0.99197313,0,1"
       radius="0"
       unit="px"
       method="auto"
       mode="F"
       chamfer_steps="1"
       flexible="false"
       use_knot_distance="true"
       apply_no_radius="true"
       apply_with_radius="true"
       only_selected="false"
       hide_knots="false" /><inkscape:path-effect
       effect="fillet_chamfer"
       id="path-effect12"
       is_visible="true"
       lpeversion="1"
       nodesatellites_param="F,0,0,1,0,0,0,1 @ F,0,0,1,0,0,0,1 @ F,0,0,1,0,0,0,1 @ F,0,0,1,0,0,0,1 @ F,0,0,1,0,0,0,1 @ F,0,0,1,0,0,0,1 @ F,0,0,1,0,0,0,1"
       radius="0"
       unit="px"
       method="auto"
       mode="F"
       chamfer_steps="1"
       flexible="false"
       use_knot_distance="true"
       apply_no_radius="true"
       apply_with_radius="true"
       only_selected="false"
       hide_knots="false" /><style
       id="style1">
      .cls-1 {
        stroke-width: 0px;
      }
    </style><inkscape:path-effect
       effect="fillet_chamfer"
       id="path-effect13-5"
       is_visible="true"
       lpeversion="1"
       nodesatellites_param="F,0,1,1,0,1.0445387,0,1 @ F,0,1,1,0,1.0445387,0,1 @ F,0,1,1,0,1.0445387,0,1 @ F,0,0,1,0,1.0445387,0,1 @ F,0,0,1,0,0.8631031,0,1 @ F,0,0,1,0,0,0,1 @ F,0,0,1,0,0.99197313,0,1"
       radius="0"
       unit="px"
       method="auto"
       mode="F"
       chamfer_steps="1"
       flexible="false"
       use_knot_distance="true"
       apply_no_radius="true"
       apply_with_radius="true"
       only_selected="false"
       hide_knots="false" /><inkscape:path-effect
       effect="fillet_chamfer"
       id="path-effect12-4"
       is_visible="true"
       lpeversion="1"
       nodesatellites_param="F,0,0,1,0,0,0,1 @ F,0,0,1,0,0,0,1 @ F,0,0,1,0,0,0,1 @ F,0,0,1,0,0,0,1 @ F,0,0,1,0,0,0,1 @ F,0,0,1,0,0,0,1 @ F,0,0,1,0,0,0,1"
       radius="0"
       unit="px"
       method="auto"
       mode="F"
       chamfer_steps="1"
       flexible="false"
       use_knot_distance="true"
       apply_no_radius="true"
       apply_with_radius="true"
       only_selected="false"
       hide_knots="false" /><style
       id="style1-5">
      .cls-1 {
        stroke-width: 0px;
      }
    </style></defs><path
     id="path1-6"
     style="display:inline;fill:#ffffff;stroke-width:1.63265"
     d="M 236.89258,0 C 174.40291,0 115.48452,18.812079 70.988281,52.968756 25.20878,88.10665 0,135.22667 0,185.64453 c 0,45.40888 20.77122,88.62655 58.669922,122.46485 l 0.646485,110.62108 c 0.03265,5.77306 2.961662,11.37599 8.099608,14.00782 6.099582,3.12653 11.915528,2.37958 16.181641,0.15429 L 198.35352,368.84373 c 12.72324,1.62613 25.65746,2.44923 38.53906,2.44923 h 0.01 c 37.30606,0 73.91308,-6.84647 106.88281,-19.87501 12.03102,23.04647 30.03352,44.1291 53.41798,62.08009 44.49623,34.15664 103.41463,52.96679 165.9043,52.96679 12.94364,0 25.95198,-0.83412 38.74219,-2.47657 l 114.90038,60.55665 c 6.52081,3.32079 11.35412,2.50879 16.00391,-0.44142 4.81467,-3.05466 7.8993,-8.20178 7.93359,-13.90623 l 0.64454,-106.91602 c 37.89544,-33.83667 58.66797,-77.0576 58.66797,-122.46485 0,-50.41787 -25.21042,-97.53692 -70.98828,-132.67968 -44.49627,-34.15667 -103.41463,-52.966811 -165.9043,-52.966811 -37.78443,0 -74.25517,6.889241 -107.02735,19.876961 C 439.69973,83.868152 412.3718,56.257049 377.60941,36.164053 336.68213,12.50531 288.02068,-1.6326531e-5 236.89261,-1.6326531e-5 Z m 0,32.652347 c 83.43494,0 158.86944,38.97507 189.63672,96.330073 -10.3249,5.71429 -20.13793,12.10124 -29.32813,19.15431 -45.77786,35.14112 -70.98828,82.26181 -70.98828,132.67967 0,13.72079 1.88426,27.19628 5.52344,40.25587 -29.14609,11.5167 -61.62783,17.5664 -94.83593,17.5664 h -0.01 c -13.29466,0 -26.65043,-0.98295 -39.6953,-2.91601 -4.67102,-0.68898 -9.17172,0.66373 -12.59376,3.39843 l -92.796868,51.79492 -0.523439,-90.09765 c 0.0065,-0.32653 7.02e-4,-0.65654 -0.01567,-0.98633 -0.213878,-4.58773 -2.348446,-8.87244 -5.884766,-11.80469 -33.999867,-28.21544 -52.72845,-64.57716 -52.72845,-102.38281 0,-84.36065 91.623313,-152.992183 204.240233,-152.992183 z m 206.95313,141.199223 47.35936,0.0253 c 31.05375,-0.14432 31.3298,9.92908 50.72267,12.43945 0.8912,-2.7112 3.43911,-4.66991 6.4453,-4.66991 h 32.83009 c 3.74048,0 6.77734,3.03879 6.77734,6.7793 v 75.30468 c 0,3.74678 -3.03686,6.7793 -6.77734,6.7793 l -0.007,-0.002 h -32.83009 c -1.97688,0 -3.75969,-0.8538 -4.99608,-2.20312 -18.70256,6.81571 -40.18472,6.02026 -41.72852,37.99022 -1.02301,21.13135 -22.04224,26.98508 -34.17383,11.64648 -9.77798,-12.36372 -3.37497,-34.69365 1.89063,-48.19335 h -30.19532 c -12.08758,0 -20.35825,-12.32603 -15.81445,-23.47852 -10.09177,-6.77805 -10.09177,-21.56916 0,-28.35352 -2.85559,-7.01028 -0.71695,-14.96292 5.08203,-19.66991 -5.38477,-11.2592 2.89967,-24.40054 15.41407,-24.39453 z m 47.35936,13.53125 -47.35936,0.0274 c -4.6192,0 -4.6192,7.02929 0,7.02929 h 31.26171 c 3.74059,0 6.77734,3.03687 6.77734,6.77734 0,3.74054 -3.03675,6.7793 -6.77734,6.7793 h -35.9375 c -4.6192,0 -4.6192,7.02931 0,7.02931 h 33.125 c 3.7405,0 6.7793,3.03685 6.7793,6.77734 0,3.74049 -3.0388,6.77734 -6.7793,6.77734 h -39.45703 c -4.6192,0 -4.6192,7.0293 0,7.0293 h 34.60547 c 3.74049,0 6.7793,3.03881 6.7793,6.7793 0,3.74047 -3.03881,6.77734 -6.7793,6.77734 h -28.27344 c -4.6192,0 -4.6192,7.02929 0,7.02929 h 40.55664 c 4.9957,0 8.2968,5.30325 6.0625,9.79688 -3.23209,6.48937 -8.02056,18.33244 -9.47656,28.97656 -0.84099,6.13164 -0.61598,11.61725 1.74999,14.61719 4.23011,5.35344 9.65969,4.81391 10.08009,-3.91602 2.1966,-45.38178 32.98076,-42.30098 53.45312,-51.21288 v -0.002 -54.55664 c -20.62295,-2.07109 -21.61507,-12.17045 -50.39063,-12.51563 z m 63.94727,7.81445 v 61.75585 h 19.27344 v -61.75585 z m 91.83986,32.67578 c 5.48576,0.10253 11.24326,2.854 15.75975,8.56444 9.7074,12.27452 3.35249,34.44345 -1.875,47.84572 h 29.97657 c 12.00028,0 20.21216,12.2366 15.70117,23.30859 10.01899,6.72914 10.01899,21.41502 0,28.15038 2.83499,6.95973 0.71032,14.85432 -5.04689,19.52735 5.34601,11.17793 -2.87874,24.22575 -15.30272,24.21874 l -47.01759,-0.0253 c -30.82947,0.14334 -31.10454,-9.85733 -50.35742,-12.3496 -0.88468,2.69165 -3.41393,4.63672 -6.39843,4.63672 h -32.59179 c -3.7135,0 -6.73048,-3.017 -6.73048,-6.73047 v -74.76173 c 0,-3.71974 3.01698,-6.72851 6.73048,-6.72851 h 0.007 32.59179 c 1.96269,0 3.73353,0.8479 4.96093,2.1875 18.56759,-6.76652 39.89494,-5.97561 41.42774,-37.71485 0.63469,-13.11175 9.02305,-20.2997 18.16602,-20.12889 z m -0.43751,13.43555 c -2.28449,0.13551 -4.09133,2.43931 -4.32617,7.31445 -2.1807,45.05428 -32.74183,41.9942 -53.06642,50.84179 v 0.002 54.16405 c 20.47419,2.05613 21.45762,12.08116 50.02539,12.42383 l 47.01759,-0.0274 c 4.58579,0 4.58579,-6.97851 0,-6.97851 h -31.03515 c -3.71351,0 -6.73047,-3.01504 -6.73047,-6.72852 0,-3.71352 3.01696,-6.72851 6.73047,-6.72851 h 35.67577 c 4.58579,0 4.58579,-6.97851 0,-6.97851 h -32.88477 c -3.71349,0 -6.72851,-3.01698 -6.72851,-6.73047 0,-3.7135 3.01502,-6.72852 6.72851,-6.72852 h 39.17189 c 4.58569,0 4.58569,-6.97852 0,-6.97852 h -34.35548 c -3.71349,0 -6.73047,-3.01502 -6.73047,-6.72852 0,-3.71348 3.01698,-6.73046 6.73047,-6.73046 h 28.06836 c 4.58579,0 4.58579,-6.97656 0,-6.97656 h -40.26172 c -4.95969,0 -8.23763,-5.26539 -6.01952,-9.72656 3.2088,-6.44253 7.96269,-18.2003 9.40819,-28.76758 0.83491,-6.08738 0.61073,-11.53344 -1.73827,-14.51172 -1.83729,-2.32523 -3.90287,-3.53122 -5.67969,-3.42578 z m -89.98633,55.67773 v 61.31055 h 19.13477 v -61.31055 z" /><path
     d="M 333.80267,127.87308 H 141.9741 c -9.01714,0 -16.32653,7.30939 -16.32653,16.32653 0,9.01715 7.30939,16.32654 16.32653,16.32654 h 191.82857 c 9.01388,0 16.32653,-7.30939 16.32653,-16.32654 0,-9.01714 -7.31102,-16.32653 -16.32653,-16.32653 z"
     id="path2-8"
     style="display:inline;fill:#ffffff;stroke-width:1.63265" /><path
     d="M 276.55655,201.78982 H 137.48403 c -6.53728,0 -11.83646,7.30939 -11.83646,16.32653 0,9.01714 5.29918,16.32653 11.83646,16.32653 h 139.07252 c 6.5349,0 11.83645,-7.30939 11.83645,-16.32653 0,-9.01714 -5.30036,-16.32653 -11.83645,-16.32653 z"
     id="path3"
     style="display:inline;fill:#ffffff;stroke-width:1.39014" /></svg>
