<?xml version="1.0" encoding="UTF-8" standalone="no"?>
<!-- Created with Inkscape (http://www.inkscape.org/) -->

<svg
   version="1.1"
   id="svg1"
   width="117.36451"
   height="132.4864"
   viewBox="0 0 117.36451 132.4864"
   sodipodi:docname="ProblemSolving.svg"
   inkscape:version="1.3.2 (091e20e, 2023-11-25, custom)"
   xmlns:inkscape="http://www.inkscape.org/namespaces/inkscape"
   xmlns:sodipodi="http://sodipodi.sourceforge.net/DTD/sodipodi-0.dtd"
   xmlns="http://www.w3.org/2000/svg"
   xmlns:svg="http://www.w3.org/2000/svg">
  <defs
     id="defs1" />
  <sodipodi:namedview
     id="namedview1"
     pagecolor="#505050"
     bordercolor="#eeeeee"
     borderopacity="1"
     inkscape:showpageshadow="0"
     inkscape:pageopacity="0"
     inkscape:pagecheckerboard="0"
     inkscape:deskcolor="#505050"
     inkscape:zoom="1.9735577"
     inkscape:cx="21.534714"
     inkscape:cy="33.695493"
     inkscape:window-width="1920"
     inkscape:window-height="1017"
     inkscape:window-x="-8"
     inkscape:window-y="-8"
     inkscape:window-maximized="1"
     inkscape:current-layer="layer1" />
  <g
     inkscape:groupmode="layer"
     id="layer1"
     inkscape:label="Mine"
     style="display:inline"
     transform="translate(-79.443094,-4.8701966)">
    <path
       style="fill:#ffffff;stroke-width:50;stroke-miterlimit:0;stroke-dasharray:125"
       d="m 124.77467,122.36785 0.76004,5.57368 24.63825,-3.04019 0.88672,-5.57369 z"
       id="path2"
       inkscape:label="MiddleMetal"
       sodipodi:nodetypes="ccccc" />
    <path
       style="fill:#ffffff;stroke-width:50;stroke-miterlimit:0;stroke-dasharray:125"
       d="m 123.95128,112.23386 0.38002,4.37028 27.23508,-2.72351 0.69671,-5.06699 z"
       id="path3"
       inkscape:label="UpperMetal"
       sodipodi:nodetypes="ccccc" />
    <path
       id="path4"
       style="display:inline;fill:#ffffff;stroke-width:50;stroke-miterlimit:0;stroke-dasharray:125"
       inkscape:label="Bulb"
       d="m 139.14844,29.302734 c -5.75582,0.03335 -11.6129,1.439163 -16.70313,3.927735 -5.55996,2.718223 -10.26373,7.461085 -13.52539,12.720703 -2.87724,4.639709 -4.1874,10.243059 -4.74609,15.673828 -2.24807,13.8763 6.05611,23.728697 13.88281,34.039062 2.0801,3.43963 4.47852,11.195318 4.47852,11.195318 l 32.96289,-3.76172 c 0,0 10.17285,-12.189956 13.61523,-19.257816 3.23455,-6.641128 6.82453,-13.85624 6.35938,-21.228516 -0.50588,-8.017716 -4.26148,-16.181472 -9.76368,-22.035156 -5.36881,-5.7118 -13.13297,-9.572656 -20.86914,-10.837891 -1.86389,-0.304836 -3.7728,-0.446663 -5.6914,-0.435547 z m -3.00977,4.886719 c 0.40848,0.0031 0.80462,0.04799 1.17774,0.138672 2.97583,0.723269 2.16242,6.691652 5.0664,7.664063 1.01944,0.341364 2.14376,-0.481008 3.03907,-1.076172 1.30687,-0.868763 1.63052,-3.169811 3.16796,-3.484375 1.88814,-0.386318 4.18182,0.807971 5.25586,2.408203 0.577,0.859686 0.41383,2.10868 0.12696,3.103515 -0.22716,0.787761 -0.75991,1.503952 -1.39258,2.025391 -0.81721,0.673532 -1.85992,1.166356 -2.91406,1.267578 -0.77503,0.07442 -1.53608,-0.737872 -2.2793,-0.505859 -0.74157,0.2315 -1.48157,0.938897 -1.58399,1.708984 -0.066,0.496135 0.44614,0.897137 0.69727,1.330078 1.2195,2.102414 3.79814,3.717385 3.92578,6.144531 0.0397,0.754301 -0.49274,1.478427 -1.01367,2.025391 -1.33648,1.403262 -3.89102,1.310854 -5.06641,2.851563 -0.76558,1.003528 -1.23194,2.451289 -0.91797,3.673828 0.44407,1.729138 3.26518,2.180877 3.64258,3.925781 0.32461,1.500855 -0.34509,3.312072 -1.45703,4.371094 -0.79381,0.756026 -2.08753,1.072078 -3.16797,0.886719 -6.17268,-1.058982 -3.31284,-7.481444 -5.0039,-8.361329 -2.89881,-1.508287 -5.6897,4.942296 -8.86719,4.179688 -2.88269,-0.691855 -2.51487,-6.593866 -5.44727,-7.029297 -1.40805,-0.20908 -2.20253,1.847647 -3.48242,2.470703 -1.66367,0.809882 -3.55341,2.131369 -5.32031,1.582031 -1.60577,-0.499242 -3.04521,-2.248678 -3.16797,-3.925781 -0.11617,-1.587151 1.06884,-3.278682 2.42383,-4.113281 1.3823,-0.851422 3.93053,1.009832 4.86133,-0.320313 2.11828,-3.027118 -4.79003,-7.353331 -3.10352,-10.640625 1.59411,-3.107186 6.81971,-5.165189 9.88086,-3.484375 1.80462,0.99088 -0.15488,4.65969 1.39258,6.017579 1.30745,1.147275 3.69213,1.384482 5.19336,0.505859 1.49302,-0.87382 2.30191,-3.033117 2.08984,-4.75 -0.30804,-2.493783 -5.12314,-3.490658 -4.62305,-5.953125 0.53495,-2.634091 4.00787,-4.658179 6.86719,-4.636719 z m 15.11719,24.90625 c 0.49735,-0.0189 0.9794,0.02635 1.41797,0.144531 2.49352,0.671925 3.35629,5.654907 4.37109,6.396485 0.7141,0.52184 2.92571,0.398815 3.35547,0.06445 0.73024,-0.568145 0.91819,-2.731174 1.58399,-3.419922 1.01252,-1.047436 3.35402,-1.664842 4.6875,-1.205078 1.3435,0.724446 2.13222,1.898688 2.5957,3.357422 0.5993,1.637192 0.96871,4.122665 -1.39258,5.636718 -1.51541,0.866939 -2.84962,0.83454 -4.56055,0.570313 -2.19743,0.105382 -2.32286,1.395686 -1.58398,3.357422 0.66192,2.210062 3.91505,3.764277 3.41992,6.017578 -0.43595,1.983971 -6.79495,6.033697 -11.01953,4.052734 -0.82118,-1.029942 0.27807,-3.9767 0,-5.320312 -1.3145,-6.35143 -10.39843,0.546161 -9.75391,4.244141 0.55944,1.720129 3.43716,2.2823 4.24414,2.914062 1.3773,1.094377 1.97063,2.197821 0.56836,3.609375 -0.43212,0.440901 -7.19413,5.563572 -8.80273,3.419922 -1.47449,-1.964975 -1.5953,-4.968765 -3.54688,-6.460938 -1.11155,-0.606815 -2.03006,-0.742354 -2.66015,0.507813 -0.70405,0.94345 -0.94951,2.282575 -1.90039,2.976562 -0.93484,0.682282 -2.21025,1.039633 -3.35742,0.886719 -1.25634,-0.167462 -2.49429,-0.916245 -3.29297,-1.900391 -0.72784,-0.896847 -1.20712,-2.145389 -1.07618,-3.292968 0.14818,-1.298669 0.93549,-2.635915 2.02539,-3.357422 1.12035,-0.741651 2.66179,-0.369162 3.99024,-0.570313 1.87802,-0.01636 2.17869,-0.955362 1.71094,-2.787109 -0.44854,-2.367385 -3.75769,-4.30657 -2.97657,-6.585938 1.11535,-2.058095 3.57469,-4.224244 5.88282,-3.833984 1.50091,0.253776 2.01249,2.644188 2.79492,3.611328 1.82341,2.253873 5.67916,3.2829 8.16992,1.996094 2.31275,-1.194841 3.13566,-4.669296 2.87891,-7.259766 -0.17618,-1.777468 -3.39964,-2.777181 -2.91407,-4.496093 0.53507,-1.894121 2.98543,-3.19153 5.14063,-3.273438 z" />
    <path
       style="display:inline;fill:#ffffff;stroke-width:50;stroke-miterlimit:0;stroke-dasharray:125"
       d="m 127.64208,132.88822 20.94745,-1.90649 c 0,0 -2.69758,6.2582 -9.72587,6.37084 -9.94296,0.15935 -11.22158,-4.46435 -11.22158,-4.46435 z"
       id="path1"
       sodipodi:nodetypes="ccsc"
       inkscape:label="LowerMetal" />
    <path
       id="rect8"
       style="fill:#ffffff;stroke-width:50;stroke-miterlimit:0;stroke-dasharray:125"
       inkscape:label="Light5"
       d="m 183.63343,56.960188 h 9.88063 c 1.82462,0 3.29354,1.46892 3.29354,3.293544 v 0.760049 c 0,1.824624 -1.46892,3.293545 -3.29354,3.293545 h -9.88063 c -1.82463,0 -3.29355,-1.468921 -3.29355,-3.293545 v -0.760049 c 0,-1.824624 1.46892,-3.293544 3.29355,-3.293544 z" />
    <path
       id="rect9"
       style="fill:#ffffff;stroke-width:50;stroke-miterlimit:0;stroke-dasharray:125"
       inkscape:label="Light3"
       d="m 134.90975,17.925489 0.33934,-9.8748041 c 0.0627,-1.8235474 1.58117,-3.2411531 3.40471,-3.1784884 l 0.7596,0.026103 c 1.82354,0.062665 3.24115,1.5811674 3.17848,3.4047147 l -0.33934,9.8748048 c -0.0627,1.823547 -1.58116,3.241153 -3.40471,3.178488 l -0.7596,-0.0261 c -1.82354,-0.06266 -3.24115,-1.581168 -3.17848,-3.404715 z" />
    <path
       id="rect10"
       style="fill:#ffffff;stroke-width:50;stroke-miterlimit:0;stroke-dasharray:125"
       inkscape:label="Light4"
       d="m 169.79741,26.444367 6.34511,-7.574068 c 1.17174,-1.398677 3.24104,-1.581383 4.63972,-0.409656 l 0.58263,0.488087 c 1.39867,1.171734 1.58139,3.241052 0.40965,4.639728 l -6.34511,7.574068 c -1.17173,1.398679 -3.24104,1.581385 -4.63973,0.40965 l -0.58262,-0.488086 c -1.39867,-1.171727 -1.58138,-3.241044 -0.40965,-4.639723 z" />
    <path
       id="rect11"
       style="fill:#ffffff;stroke-width:50;stroke-miterlimit:0;stroke-dasharray:125"
       inkscape:label="Light2"
       d="m 103.60527,30.199037 -7.090745,-6.88101 C 95.205101,22.047334 95.173921,19.9702 96.444615,18.660776 l 0.529308,-0.545442 c 1.270695,-1.309424 3.347827,-1.340603 4.657247,-0.06991 l 7.09075,6.88101 c 1.30942,1.270693 1.3406,3.347827 0.0699,4.657252 l -0.52931,0.545441 c -1.27069,1.309424 -3.34782,1.340604 -4.65724,0.06991 z" />
    <path
       id="rect7"
       style="display:inline;fill:#ffffff;stroke-width:50;stroke-miterlimit:0;stroke-dasharray:125"
       inkscape:label="Light1"
       d="m 82.736638,56.750305 h 9.880633 c 1.824624,0 3.293545,1.468921 3.293545,3.293545 v 0.760049 c 0,1.824624 -1.468921,3.293545 -3.293545,3.293545 h -9.880633 c -1.824623,0 -3.293544,-1.468921 -3.293544,-3.293545 V 60.04385 c 0,-1.824624 1.468921,-3.293545 3.293544,-3.293545 z" />
  </g>
</svg>
